<?xml version="1.0" encoding="UTF-8"?><svg id="linecolor" xmlns="http://www.w3.org/2000/svg" viewBox="0 0 500 500"><path d="M477.276,151.259V442.434c0,16.652-13.494,30.147-30.147,30.147H52.87c-16.653,0-30.147-13.494-30.147-30.147V151.259H477.276Z" fill="#346dbf"/><path d="M477.276,151.259v150.135l-32.042,8.571-50.106,17.05c-19.022,6.473-33.017,22.782-36.525,42.567h0c-1.452,8.189-3.895,16.172-7.273,23.772l-8.03,18.063c-3.751,8.437-15.617,8.732-19.783,.492l-2.92-5.777c-8.276-16.37-13.383-34.157-15.053-52.423l-1.886-20.632c-2.232-24.41-23.554-42.567-48.009-40.881l-17.344,1.196c-12.832,.885-25.432-3.753-34.629-12.745l-19.798-19.359c-10.269-10.041-24.706-14.59-38.875-12.25l-15.379,2.54c-12.707,2.099-25.705-1.336-35.717-9.438L22.723,184.532v-33.273H477.276Z" fill="#46cc2f"/><path d="M227.401,472.58H52.87c-16.65,0-30.147-13.497-30.147-30.147v-127.601l77.913,20.558c19.928,5.258,35.379,21.002,40.261,41.025l4.158,17.052c2.957,12.126,12.151,21.759,24.127,25.276l10.796,3.171c19.062,5.599,34.56,19.534,42.146,37.896l5.276,12.77Z" fill="#46cc2f"/><ellipse cx="250.539" cy="214.229" rx="75.493" ry="21.422" fill="#ffcc71"/><ellipse cx="250.539" cy="214.228" rx="37.687" ry="10.694" fill="#d19718"/><path d="M264.23,106.66v86.05c0,3.01-.8,5.98-2.35,8.73l-8.14,14.5c-1.22,2.17-5.18,2.17-6.4,0l-8.15-14.5c-1.54-2.75-2.34-5.72-2.34-8.73V106.66h27.38Z" fill="#f0f4ff"/><path d="M282.466,79.926V27.433h-63.856v52.493c0,3.903-1.817,7.574-4.903,9.964-6.5,5.035-17.247,16.63-18.035,38.626-.051,1.417,1.099,2.589,2.516,2.589h104.699c1.418,0,2.567-1.172,2.516-2.589-.789-21.996-11.535-33.591-18.035-38.626-3.086-2.39-4.903-6.061-4.903-9.964Z" fill="#f6ab14"/><rect x="199.668" y="16.265" width="101.741" height="29.684" rx="3.546" ry="3.546" fill="#ffcc71"/><path d="M118.63,151.26V472.58H50.92c-16.52,0-29.94-13.28-30.14-29.76V151.26H118.63Z" fill="#10569b"/><path d="M477.273,151.26V442.43c0,16.66-13.5,30.15-30.15,30.15h-67.71V151.26h97.86Z" fill="#10569b"/><path d="M118.63,151.26v100.89c-9.66-.37-19.04-3.83-26.67-10.01L20.78,184.54v-33.28H118.63Z" fill="#4dad2a"/><path d="M477.273,151.26v150.13l-32.05,8.57-50.1,17.05c-5.75,1.96-11.03,4.81-15.71,8.4V151.26h97.86Z" fill="#4dad2a"/><path d="M118.63,345.2v127.38H50.92c-16.52,0-29.94-13.29-30.14-29.76v-127.99l77.91,20.56c7.36,1.94,14.11,5.32,19.94,9.81Z" fill="#4dad2a"/><path d="M407.886,134.102V401.402c0,6.015,4.876,10.891,10.891,10.891h28.354c16.647,0,30.142,13.495,30.142,30.142V134.102c0-4.479-2.757-8.472-6.913-10.144-18.521-7.449-37.041-7.449-55.562,0-4.156,1.672-6.913,5.664-6.913,10.144Z" fill="#405987"/><path d="M90.167,134.102V401.402c0,6.015-4.876,10.891-10.891,10.891h-28.354c-16.647,0-30.142,13.495-30.142,30.142V134.102c0-4.479,2.757-8.472,6.913-10.144,18.52-7.449,37.041-7.449,55.562,0,4.156,1.672,6.913,5.664,6.913,10.144Z" fill="#405987"/><polygon points="264.23 131.1 264.23 182.06 236.85 168.75 236.85 131.1 264.23 131.1" fill="#c0d8ff"/><path d="M482.815,134.102c0-6.525-3.943-12.328-10.047-14.782-19.67-7.911-39.62-7.913-59.292,0-6.104,2.455-10.048,8.257-10.048,14.783v12.158h-134.198v-10.16h33.659c2.042,0,4.023-.845,5.436-2.318,1.401-1.461,2.156-3.456,2.072-5.439-.855-24.116-12.877-36.92-19.968-42.408-1.881-1.455-2.96-3.644-2.96-6.005v-28.981h10.394c4.712,0,8.546-3.833,8.546-8.546V19.811c0-4.712-3.834-8.546-8.546-8.546h-94.649c-4.712,0-8.546,3.833-8.546,8.546v22.593c0,4.712,3.834,8.546,8.546,8.546h10.396v28.981c0,2.357-1.081,4.547-2.96,6.005-7.09,5.486-19.111,18.289-19.978,42.408-.071,2.013,.693,4.001,2.097,5.455,1.411,1.462,3.388,2.301,5.421,2.301h33.659v10.16H97.656v-12.158c0-6.525-3.944-12.328-10.047-14.782-19.672-7.911-39.621-7.913-59.293,0-6.103,2.455-10.048,8.257-10.048,14.783v17.119c-.046,.009,.025,291.202-.004,291.222,.012,19.374,15.779,35.137,35.149,35.137H447.674c19.358,0,35.116-15.751,35.14-35.13,.014-.008-.007-308.338,.001-308.349Zm-69.387,0c0-2.421,1.483-4.582,3.778-5.505,17.438-7.013,34.392-7.013,51.83,0,2.295,.923,3.778,3.084,3.778,5.505v17.148c0,.008-.002,266.645,0,266.655-6.386-6.543-15.297-10.612-25.141-10.612h-28.355c-3.248,0-5.891-2.643-5.891-5.891V134.102Zm-180.818,64.334c.761,3.998,8.459,16.185,10.37,19.955,2.896,5.508,12.223,5.506,15.119-.002,1.939-3.84,9.557-15.867,10.368-19.952,15.299,.917,48.679,5.925,52.562,15.794,0,1.417-3.32,6.036-18.476,10.336-13.827,3.923-32.3,6.084-52.015,6.084s-38.188-2.161-52.015-6.084c-15.156-4.3-18.476-8.919-18.476-10.336,3.843-9.855,37.32-14.889,52.561-15.794ZM204.668,21.265h91.741v19.685h-91.741V21.265Zm12.107,72.576c4.344-3.371,6.835-8.441,6.835-13.91v-28.981h53.859v28.981c0,5.48,2.493,10.552,6.841,13.914,5.45,4.218,14.526,13.895,15.946,32.255h-99.443c1.421-18.348,10.504-28.036,15.962-32.26Zm42.455,42.26v56.609c-.031,2.16-.553,4.248-1.711,6.283l-6.98,12.435-6.985-12.429c-1.153-2.042-1.674-4.135-1.704-6.296-.007-.073-.016-.145-.025-.218,.013,.093,.023,.184,.025,.218v-56.602h17.381Zm-27.381,20.16v32.206c-29.529,2.124-61.8,9.938-61.8,25.764,0,18.152,41.724,26.42,80.49,26.42s80.49-8.268,80.49-26.42c0-15.825-32.27-23.639-61.8-25.764v-32.206h134.198v162.828l-9.367,3.189c-20.746,7.065-36.012,24.856-39.842,46.437-.671,3.817-1.601,7.692-2.769,11.518-2.079,7.504-9.061,21.843-12.176,29.155-1.802,4.523-8.71,4.697-10.748,.268l-2.921-5.783c-8.031-15.878-12.925-32.908-14.543-50.617-2.004-21.709-1.178-38.581-19.294-54.21-30.193-26.144-57.373,3.517-84.059-21.97l-19.791-19.361c-11.363-11.11-27.515-16.194-43.189-13.608l-15.381,2.54c-11.249,1.859-22.8-1.183-31.692-8.343v-82.044H231.85ZM28.269,134.102c0-2.421,1.483-4.582,3.779-5.505,17.438-7.013,34.392-7.013,51.83,0,2.295,.923,3.778,3.083,3.778,5.504v17.1c.019,.018-.014,250.146,0,250.2,0,3.249-2.643,5.891-5.892,5.891h-28.354c-9.845,0-18.756,4.068-25.142,10.613V134.102Zm25.146,333.478c-33.362-1.414-33.366-48.879-.003-50.287h28.353c8.763,0,15.892-7.129,15.892-15.891v-61.769c19.098,4.257,34.329,18.899,38.93,37.97l4.15,17.055c3.374,13.815,13.942,24.882,27.58,28.881l10.799,3.169c20.27,5.86,34.52,21.194,41.352,40.873H53.414Zm394.26,0H231.287l-4.001-9.678c-8.201-19.864-24.731-34.73-45.353-40.79l-10.801-3.17c-10.226-2.999-18.15-11.298-20.68-21.654l-4.15-17.054c-5.621-23.646-25.006-41.2-48.646-45.944v-78.894c17.247,9.845,30.382,6.79,48.702,3.577,12.554-2.072,25.474,2,34.569,10.891,18.36,17.305,29.992,35.186,58.258,33.514l17.353-1.19c21.565-1.493,40.71,14.815,42.685,36.345l1.88,20.631c1.734,18.971,6.976,37.214,15.577,54.219l2.919,5.779c2.796,5.554,8.438,8.911,14.625,8.751,6.222-.153,11.658-3.779,14.188-9.464l8.029-18.068c3.559-7.974,6.126-16.437,7.625-24.929,3.903-21.177,18.971-35.249,39.361-40.802v71.75c0,8.762,7.129,15.891,15.891,15.891h28.355c33.355,1.393,33.347,48.886,0,50.287Z" fill="#363b40"/></svg>