<?xml version="1.0" encoding="UTF-8"?><svg id="linecolor" xmlns="http://www.w3.org/2000/svg" viewBox="0 0 500 500"><path d="M477.414,151.259V442.434c0,16.652-13.494,30.147-30.147,30.147H53.008c-16.653,0-30.147-13.494-30.147-30.147V151.259H477.414Z" fill="#346dbf"/><path d="M477.414,151.259v150.135l-32.042,8.571-50.106,17.05c-19.022,6.473-33.017,22.782-36.525,42.567h0c-1.452,8.189-3.895,16.172-7.273,23.772l-8.03,18.063c-3.751,8.437-15.617,8.732-19.783,.492l-2.92-5.777c-8.276-16.37-13.383-34.157-15.053-52.423l-1.887-20.632c-2.232-24.41-23.555-42.567-48.009-40.881l-17.344,1.196c-12.832,.885-25.432-3.753-34.629-12.745l-19.798-19.359c-10.269-10.041-24.706-14.59-38.875-12.25l-15.379,2.54c-12.707,2.099-25.705-1.336-35.717-9.438L22.862,184.532v-33.273H477.414Z" fill="#46cc2f"/><path d="M227.539,472.58H53.008c-16.65,0-30.147-13.497-30.147-30.147v-127.601l77.913,20.558c19.928,5.258,35.379,21.002,40.261,41.025l4.158,17.052c2.957,12.126,12.151,21.759,24.127,25.276l10.796,3.171c19.062,5.599,34.56,19.534,42.146,37.896l5.276,12.77Z" fill="#46cc2f"/><circle cx="250" cy="149.901" r="85.979" fill="#a3aac6"/><path d="M306.81,149.9c0,31.37-25.44,56.81-56.81,56.81-12.44,0-23.96-4-33.32-10.8-14.23-10.32-23.49-27.09-23.49-46.01,0-31.37,25.44-56.81,56.81-56.81,25.52,0,47.12,16.84,54.29,40.02,1.64,5.31,2.52,10.95,2.52,16.79Z" fill="#f0f4ff"/><polygon points="300.521 99.38 235.246 135.147 264.754 164.654 300.521 99.38" fill="#e24949"/><polygon points="199.479 200.421 235.246 135.147 264.754 164.654 199.479 200.421" fill="#405987"/><path d="M250,80.663h0c-5.481,0-9.924-4.443-9.924-9.924v-13.636c0-5.481,4.443-9.924,9.924-9.924h0c5.481,0,9.924,4.443,9.924,9.924v13.636c0,5.481-4.443,9.924-9.924,9.924Z" fill="#ffcc71"/><path d="M250,252.622h0c-5.481,0-9.924-4.443-9.924-9.924v-13.636c0-5.481,4.443-9.924,9.924-9.924h0c5.481,0,9.924,4.443,9.924,9.924v13.636c0,5.481-4.443,9.924-9.924,9.924Z" fill="#ffcc71"/><path d="M180.763,149.901h0c0,5.481-4.443,9.924-9.924,9.924h-13.636c-5.481,0-9.924-4.443-9.924-9.924h0c0-5.481,4.443-9.924,9.924-9.924h13.636c5.481,0,9.924,4.443,9.924,9.924Z" fill="#ffcc71"/><path d="M352.721,149.901h0c0,5.481-4.443,9.924-9.924,9.924h-13.636c-5.481,0-9.924-4.443-9.924-9.924h0c0-5.481,4.443-9.924,9.924-9.924h13.636c5.481,0,9.924,4.443,9.924,9.924Z" fill="#ffcc71"/><path d="M118.63,151.26V472.58H50.92c-16.52,0-29.94-13.28-30.14-29.76V151.26H118.63Z" fill="#10569b"/><path d="M477.412,151.26V442.43c0,16.66-13.5,30.15-30.15,30.15h-67.71V151.26h97.86Z" fill="#10569b"/><path d="M118.63,151.26v100.89c-9.66-.37-19.04-3.83-26.67-10.01L20.78,184.54v-33.28H118.63Z" fill="#4dad2a"/><path d="M477.412,151.26v150.13l-32.05,8.57-50.1,17.05c-5.75,1.96-11.03,4.81-15.71,8.4V151.26h97.86Z" fill="#4dad2a"/><path d="M118.63,345.2v127.38H50.92c-16.52,0-29.94-13.29-30.14-29.76v-127.99l77.91,20.56c7.36,1.94,14.11,5.32,19.94,9.81Z" fill="#4dad2a"/><path d="M408.024,134.102V401.402c0,6.015,4.876,10.891,10.891,10.891h28.354c16.647,0,30.142,13.495,30.142,30.142V134.102c0-4.479-2.757-8.472-6.913-10.144-18.521-7.449-37.041-7.449-55.562,0-4.156,1.672-6.913,5.664-6.913,10.144Z" fill="#405987"/><path d="M90.167,134.102V401.402c0,6.015-4.876,10.891-10.891,10.891h-28.354c-16.647,0-30.142,13.495-30.142,30.142V134.102c0-4.479,2.757-8.472,6.913-10.144,18.52-7.449,37.041-7.449,55.562,0,4.156,1.672,6.913,5.664,6.913,10.144Z" fill="#405987"/><path d="M306.81,149.9c0,31.37-25.44,56.81-56.81,56.81-12.44,0-23.96-4-33.32-10.8,31.16-5.55,69.58-21.13,87.61-62.8,1.64,5.31,2.52,10.95,2.52,16.79Z" fill="#c0d8ff"/><g><path d="M482.412,134.102c0-6.525-3.944-12.328-10.047-14.782-19.672-7.911-39.621-7.913-59.293,0-6.103,2.455-10.048,8.257-10.048,14.783v12.158h-45.771c-1.632-6.472-7.484-11.283-14.456-11.283h-3.054c-5.736-37.515-37.305-69.087-74.82-74.82v-3.054c0-8.229-6.694-14.924-14.924-14.924s-14.924,6.695-14.924,14.924v3.054c-37.516,5.733-69.084,37.306-74.82,74.82h-3.054c-6.972,0-12.824,4.811-14.456,11.283h-45.494v-12.158c0-6.525-3.944-12.328-10.047-14.782-19.672-7.911-39.621-7.913-59.293,0-6.103,2.455-10.048,8.257-10.048,14.783v17.119c-.045-.002,.024,291.209-.004,291.222,.012,19.375,15.779,35.137,35.149,35.137H447.27c19.354,0,35.11-15.745,35.14-35.117,.009,.007,0-308.357,.003-308.362Zm-69.388,0c0-2.421,1.483-4.582,3.779-5.505,17.438-7.013,34.392-7.013,51.83,0,2.295,.923,3.778,3.083,3.778,5.504v17.139c0,.017-.004,266.645-.002,266.664-6.387-6.544-15.297-10.611-25.141-10.611h-28.353c-3.249,0-5.892-2.643-5.892-5.891V134.102Zm-65.303,15.799c0,2.715-2.209,4.924-4.924,4.924h-13.637c-6.504-.206-6.509-9.64,0-9.848,.056,.011,6.195-.012,6.243,.004,.116-.038,7.288,.019,7.394-.004,2.715,0,4.924,2.209,4.924,4.924ZM245.076,57.103c.205-6.503,9.641-6.509,9.848,0v13.636c-.205,6.503-9.641,6.509-9.848,0v-13.636Zm-10,13.215c-.23,8.372,6.539,15.359,14.924,15.345,8.384,.013,15.154-6.973,14.924-15.345,32.507,6.11,58.548,32.15,64.658,64.659-8.373-.23-15.358,6.54-15.345,14.924-.014,8.384,6.972,15.154,15.345,14.924-6.11,32.508-32.151,58.548-64.658,64.658,.229-8.372-6.54-15.358-14.924-15.344-8.384-.013-15.154,6.972-14.924,15.344-32.507-6.11-58.548-32.15-64.658-64.658,8.373,.23,15.358-6.54,15.345-14.924,.014-8.384-6.972-15.154-15.345-14.924,6.11-32.508,32.151-58.549,64.658-64.659Zm19.848,158.744v13.636c-.205,6.503-9.641,6.509-9.848,0v-13.636c.205-6.503,9.641-6.509,9.848,0Zm-97.722-84.085c3.417,.004,10.244-.003,13.637,0,6.503,.205,6.509,9.641,0,9.848h-13.637c-6.504-.206-6.509-9.64,0-9.848Zm-13.481,11.283c2.394,5.053,7.528,8.564,13.481,8.564h3.054c5.736,37.52,37.301,69.085,74.82,74.819v3.055c0,8.229,6.694,14.924,14.924,14.924s14.924-6.695,14.924-14.924v-3.055c37.52-5.734,69.084-37.3,74.82-74.819h3.054c5.953,0,11.087-3.512,13.481-8.564h46.746v162.828l-9.367,3.189c-20.746,7.065-36.012,24.856-39.842,46.437-.671,3.817-1.601,7.692-2.768,11.518-2.079,7.503-9.061,21.843-12.175,29.155-.958,2.153-2.938,3.472-5.296,3.53-2.37,.042-4.394-1.162-5.453-3.262l-2.921-5.783c-8.031-15.878-12.925-32.908-14.543-50.617-2.004-21.709-1.178-38.581-19.294-54.21-17.522-14.532-32.377-12.248-53.27-10.643-11.4,.789-22.614-3.34-30.789-11.327l-19.791-19.361c-11.364-11.11-27.516-16.194-43.189-13.608l-15.381,2.54c-11.249,1.859-22.8-1.183-31.692-8.343v-82.044h46.469Zm-115.857-22.158c0-2.421,1.483-4.582,3.779-5.505,8.719-3.506,17.316-5.26,25.914-5.26s17.196,1.753,25.916,5.26c2.295,.923,3.778,3.083,3.778,5.504v17.139c.007,.005-.005,250.144,0,250.161,0,3.249-2.643,5.891-5.892,5.891h-28.354c-9.845,0-18.756,4.068-25.142,10.613V134.102Zm25.145,333.478c-33.362-1.414-33.366-48.879-.003-50.287h28.353c8.763,0,15.892-7.129,15.892-15.891v-61.769c19.098,4.257,34.33,18.899,38.93,37.97l4.151,17.054c3.374,13.815,13.942,24.882,27.579,28.881l10.799,3.169c20.27,5.86,34.52,21.194,41.352,40.873H53.01Zm394.26,0H230.883l-4.001-9.678c-8.201-19.864-24.731-34.73-45.353-40.79l-10.801-3.17c-10.226-2.999-18.149-11.297-20.679-21.655l-4.151-17.053c-5.619-23.646-25.006-41.2-48.645-45.945v-78.894c9.999,5.803,21.784,8.027,33.322,6.118l15.38-2.54c12.554-2.072,25.474,2,34.569,10.891,18.357,17.302,29.996,35.192,58.259,33.514l17.352-1.19c21.548-1.493,40.71,14.815,42.685,36.345l1.88,20.631c1.734,18.971,6.976,37.214,15.577,54.219l2.919,5.779c2.796,5.554,8.438,8.911,14.625,8.751,6.223-.153,11.659-3.779,14.189-9.465l8.028-18.068c3.559-7.974,6.126-16.437,7.625-24.929,3.903-21.177,18.971-35.249,39.361-40.802v71.75c0,8.762,7.129,15.891,15.892,15.891h28.353c13.864-.003,25.145,11.289,25.141,25.144-.008,13.864-11.286,25.143-25.141,25.143Z" fill="#363b40"/><path d="M195.095,198.019c-1.884,3.18,.735,7.527,4.387,7.403,.819,0,1.645-.201,2.4-.615l10.621-5.82c58.189,42.429,128.997-28.449,86.583-86.584l5.819-10.62c1.067-1.948,.722-4.368-.85-5.938-1.57-1.57-3.988-1.918-5.938-.849l-10.621,5.82c-58.19-42.428-128.997,28.448-86.583,86.584l-5.819,10.62Zm91.892-84.345l-23.413,42.729c-5.004-5.004-15.074-15.073-20.076-20.076l42.729-23.414c.256,.251,.51,.504,.76,.76Zm-50.559,29.724l20.076,20.076-42.729,23.413c-.256-.251-.509-.504-.76-.76l23.413-42.729Zm65.38,6.502c.393,40.438-45.897,65.686-79.531,43.731l44.833-24.566,.005-.003c.848-.463,1.553-1.162,2.025-2.005l24.592-44.881c5.105,8.023,8.076,17.53,8.076,27.724Zm-103.613,0c-.393-40.437,45.897-65.686,79.53-43.73l-44.833,24.566-.005,.003c-.848,.463-1.553,1.162-2.025,2.005l-24.592,44.88c-5.105-8.023-8.076-17.53-8.076-27.724Z" fill="#363b40"/></g></svg>