<?xml version="1.0" encoding="iso-8859-1"?>
<!-- Generator: Adobe Illustrator 19.1.0, SVG Export Plug-In . SVG Version: 6.00 Build 0)  -->
<svg version="1.1" xmlns="http://www.w3.org/2000/svg" xmlns:xlink="http://www.w3.org/1999/xlink" x="0px" y="0px"
	 viewBox="0 0 64 64" style="enable-background:new 0 0 64 64;" xml:space="preserve">
<g id="Layer_26">
</g>
<g id="Layer_25">
</g>
<g id="Layer_24">
</g>
<g id="Layer_23">
</g>
<g id="Layer_22">
</g>
<g id="Layer_21">
</g>
<g id="Layer_20">
</g>
<g id="Layer_19">
</g>
<g id="Layer_18">
	<g>
		<path style="fill:#FFCB5B;" d="M34.127,43.898c0.921-7.667,7.105-13.851,14.772-14.772c5.181-0.622,9.964,1.093,13.45,4.225
			C62.986,33.924,64,33.458,64,32.601V19c0-2.2-1.8-4-4-4H4c-2.2,0-4,1.8-4,4v36c0,2.2,1.8,4,4,4h33.601
			c0.857,0,1.324-1.014,0.751-1.652C35.219,53.863,33.504,49.079,34.127,43.898z"/>
		<path style="fill:#BD6428;" d="M60,11H31.405c-0.89,0-1.735-0.396-2.305-1.079L25.9,6.079C25.33,5.395,24.485,5,23.595,5H4
			C1.8,5,0,6.8,0,9v10c0-2.2,1.8-4,4-4h56c2.2,0,4,1.8,4,4v-4C64,12.8,62.2,11,60,11z"/>
		<g>
			<path style="fill:#F7B84E;" d="M61,24v8.274c0.467,0.341,0.917,0.703,1.347,1.087C62.988,33.931,64,33.47,64,32.611V21
				C62.343,21,61,22.343,61,24z"/>
			<path style="fill:#F7B84E;" d="M49.5,29.076C49.005,29.032,48.506,29,48,29c-9.389,0-17,7.611-17,17l0,0.112
				C31.018,51.55,26.583,56,21.145,56L7,56c-1.657,0-3,1.343-3,3h33.611c0.858,0,1.32-1.012,0.749-1.653
				c-0.384-0.43-0.746-0.88-1.087-1.347h-0.002C35.221,53.194,34,49.743,34,46C34,37.118,40.815,29.836,49.5,29.076z"/>
		</g>
		<path style="fill:#AE5C26;" d="M62,13H2c-1.105,0-2,0.895-2,2v3h0.143C0.592,16.283,2.147,15,4,15h56c1.853,0,3.408,1.283,3.857,3
			H64v-3C64,13.895,63.105,13,62,13z"/>
		<circle style="fill:#3689C9;" cx="51" cy="46" r="13"/>
		<g>
			<path style="fill:#1B6FAB;" d="M49,45.523l-1.464,1.757c-0.587,0.705-1.556,0.895-2.354,0.536
				c0.121,0.269,0.296,0.519,0.538,0.72c0.849,0.708,2.11,0.592,2.816-0.256L49,47.724V45.523z"/>
			<path style="fill:#1B6FAB;" d="M58.536,45.72l-5-6c-0.149-0.179-0.332-0.318-0.528-0.434l4.528,5.434
				c0.707,0.849,0.593,2.109-0.256,2.816c-0.663,0.553-1.574,0.597-2.279,0.189l0.463,0.555c0.707,0.849,1.968,0.964,2.816,0.256
				C59.129,47.829,59.243,46.568,58.536,45.72z"/>
			<path style="fill:#1B6FAB;" d="M53,45.523V52c0,1.104-0.896,2-2,2c-0.293,0-0.569-0.066-0.82-0.18C50.494,54.515,51.189,55,52,55
				c1.104,0,2-0.896,2-2v-6.276L53,45.523z"/>
		</g>
		<path style="fill:#FFFFFF;" d="M44.72,47.536c0.849,0.708,2.11,0.592,2.816-0.256L49,45.523V52c0,1.104,0.896,2,2,2s2-0.896,2-2
			v-6.477l1.464,1.757c0.707,0.849,1.968,0.964,2.816,0.256c0.849-0.707,0.963-1.968,0.256-2.816l-5-6
			C52.156,38.264,51.594,38,51,38c-0.594,0-1.156,0.264-1.536,0.72l-5,6C43.757,45.568,43.871,46.829,44.72,47.536z"/>
		<g>
			<path style="fill:#DDDFE1;" d="M47.859,46.681c-0.702-0.212-1.433-0.095-2.115,0.174c-0.497,0.196-1.063,0.186-1.562-0.039
				c0.18,0.403,0.482,0.76,0.947,0.981c0.857,0.408,1.891,0.102,2.499-0.627L48,46.723L47.859,46.681z"/>
		</g>
		<path style="fill:#1B6FAB;" d="M62,44c-1.105,0-2,0.895-2,2c0,4.971-4.029,9-9,9c-1.105,0-2,0.895-2,2c0,1.105,0.895,2,2,2
			c7.18,0,13-5.82,13-13C64,44.895,63.105,44,62,44z"/>
		<path style="fill:#4C9FD7;" d="M40,48c1.105,0,2-0.895,2-2c0-4.971,4.029-9,9-9c1.105,0,2-0.895,2-2c0-1.105-0.895-2-2-2
			c-7.18,0-13,5.82-13,13C38,47.105,38.895,48,40,48z"/>
		<g>
			<path style="fill:#DDDFE1;" d="M53,45.523c-0.552,0-1,0.448-1,1V53c0,0.293-0.067,0.569-0.18,0.82C52.515,53.507,53,52.811,53,52
				V45.523L53,45.523z"/>
		</g>
		<path style="fill:#E69534;" d="M27.5,27h-15c-0.828,0-1.5-0.672-1.5-1.5v0c0-0.828,0.672-1.5,1.5-1.5h15
			c0.828,0,1.5,0.672,1.5,1.5v0C29,26.328,28.328,27,27.5,27z"/>
		<path style="fill:#E69534;" d="M19.5,32h-7c-0.828,0-1.5-0.672-1.5-1.5v0c0-0.828,0.672-1.5,1.5-1.5h7c0.828,0,1.5,0.672,1.5,1.5
			v0C21,31.328,20.328,32,19.5,32z"/>
		<path style="fill:#FFDB6F;" d="M4,15c-2.2,0-4,1.8-4,4v14c1.657,0,3-1.343,3-3v-0.595c0-1.285,1.009-2.25,2.282-2.424
			c0.018-0.002,0.036-0.005,0.054-0.008C6.319,26.813,7,25.889,7,24.893L7,21c0-1.657,1.343-3,3-3h11c1.657,0,3-1.343,3-3H4z"/>
	</g>
</g>
<g id="Layer_17">
</g>
<g id="Layer_16">
</g>
<g id="Layer_15">
</g>
<g id="Layer_14">
</g>
<g id="Layer_13">
</g>
<g id="Layer_12">
</g>
<g id="Layer_11">
</g>
<g id="Layer_10">
</g>
<g id="Layer_9">
</g>
<g id="Layer_8">
</g>
<g id="Layer_7">
</g>
<g id="Layer_6">
</g>
<g id="Layer_5">
</g>
<g id="Layer_4">
</g>
<g id="Layer_3">
</g>
<g id="Layer_2">
</g>
</svg>
