<?xml version="1.0" encoding="utf-8"?>
<!-- Generator: Adobe Illustrator 21.0.0, SVG Export Plug-In . SVG Version: 6.00 Build 0)  -->
<svg version="1.1" id="Layer_1" xmlns="http://www.w3.org/2000/svg" xmlns:xlink="http://www.w3.org/1999/xlink" x="0px" y="0px"
	 viewBox="0 0 256 256" style="enable-background:new 0 0 256 256;" xml:space="preserve">
<style type="text/css">
	.st0{fill:#EA4647;}
	.st1{fill:#6DCC6D;}
	.st2{fill:#E9E9EA;}
	.st3{fill:#FFCD29;}
	.st4{fill:#FDAD2C;}
	.st5{fill:#B16E3B;}
	.st6{fill:#55ACD5;}
</style>
<g id="Layer_9">
	<path class="st0" d="M222,127.5l-96.2-96.2l-96.2,96.2c-2.6,2.5-6.7,2.5-9.3-0.1c-2.5-2.5-2.5-6.6,0-9.2L121.2,17.4
		c2.6-2.6,6.7-2.6,9.3,0c0,0,0,0,0,0l100.8,100.8c2.6,2.6,2.6,6.7,0,9.3C228.7,130,224.6,130,222,127.5z"/>
	<path class="st1" d="M38.1,240.9h175.4c3.5,0,6.3,2.8,6.3,6.3l0,0c0,3.5-2.8,6.3-6.3,6.3H38.1c-3.5,0-6.3-2.8-6.3-6.3l0,0
		C31.8,243.7,34.7,240.9,38.1,240.9z"/>
	<polygon class="st2" points="125.8,31.3 42.9,114.2 42.9,240.9 208.8,240.9 208.8,114.2 	"/>
	<rect x="134.7" y="134.8" class="st3" width="61.4" height="12.6"/>
	<rect x="134.7" y="147.5" class="st4" width="61.4" height="61.4"/>
	<rect x="55.5" y="160.1" class="st5" width="68.2" height="80.8"/>
	<rect x="55.5" y="134.8" class="st3" width="68.2" height="12.6"/>
	<rect x="55.5" y="147.5" class="st3" width="68.2" height="12.6"/>
	<path class="st0" d="M237.5,165.5h-1.8v-1.8c0-1.4-1.1-2.5-2.5-2.5s-2.5,1.1-2.5,2.5v1.8h-1.8c-1.4,0-2.5,1.1-2.5,2.5
		s1.1,2.5,2.5,2.5h1.8v1.8c0,1.4,1.1,2.5,2.5,2.5s2.5-1.1,2.5-2.5v-1.8h1.8c1.4,0,2.5-1.1,2.5-2.5S238.9,165.5,237.5,165.5
		L237.5,165.5z"/>
	<path class="st3" d="M74,30.8c0-0.2-0.1-0.3-0.1-0.5c-0.1-0.1-0.1-0.3-0.2-0.4c-0.1-0.1-0.2-0.3-0.3-0.4c-1-0.9-2.5-0.9-3.5,0
		c-0.1,0.1-0.2,0.2-0.3,0.4c-0.2,0.3-0.3,0.6-0.4,0.9c-0.1,0.3-0.1,0.7,0,1c0,0.2,0.1,0.3,0.1,0.5c0.1,0.2,0.1,0.3,0.2,0.4
		c0.1,0.1,0.2,0.3,0.3,0.4c1,1,2.5,1,3.5,0c0,0,0,0,0,0c0.1-0.1,0.2-0.2,0.3-0.4c0.1-0.1,0.2-0.3,0.2-0.4c0.1-0.1,0.1-0.3,0.1-0.5
		C74.1,31.4,74.1,31.1,74,30.8z"/>
	<path class="st3" d="M222.9,147.6c0-0.2-0.1-0.3-0.1-0.5c-0.1-0.1-0.1-0.3-0.2-0.4c-0.1-0.1-0.2-0.3-0.3-0.4c-1-0.9-2.5-0.9-3.5,0
		c-0.1,0.1-0.2,0.2-0.3,0.4c-0.2,0.3-0.3,0.6-0.4,0.9c-0.1,0.3-0.1,0.7,0,1c0,0.2,0.1,0.3,0.1,0.5c0.1,0.2,0.1,0.3,0.2,0.4
		c0.1,0.1,0.2,0.3,0.3,0.4c1,1,2.5,1,3.5,0c0,0,0,0,0,0c0.1-0.1,0.2-0.2,0.3-0.4c0.1-0.1,0.2-0.3,0.2-0.4c0.1-0.1,0.1-0.3,0.1-0.5
		C223,148.3,223,147.9,222.9,147.6z"/>
	<path class="st6" d="M100.1,8.2c-4.1-0.8-7.2-4-8-8C92,0.1,91.9,0,91.8,0c-0.1,0-0.1,0.1-0.2,0.2c-0.8,4.1-4,7.2-8,8
		c-0.1,0-0.2,0.1-0.2,0.2c0,0.1,0.1,0.1,0.2,0.2c4.1,0.8,7.2,4,8,8c0,0.1,0.1,0.2,0.2,0.2c0.1,0,0.1-0.1,0.2-0.2c0.8-4.1,4-7.2,8-8
		c0.1,0,0.2-0.1,0.2-0.2C100.2,8.2,100.1,8.2,100.1,8.2z"/>
	<path class="st1" d="M30.7,203.6c-3.2-0.6-5.6-3.1-6.2-6.2c0-0.1-0.1-0.1-0.2-0.1c-0.1,0-0.1,0.1-0.1,0.1c-0.6,3.2-3.1,5.6-6.2,6.2
		c-0.1,0-0.1,0.1-0.1,0.2c0,0.1,0.1,0.1,0.1,0.1c3.2,0.6,5.6,3.1,6.2,6.2c0,0.1,0.1,0.1,0.2,0.1c0.1,0,0.1-0.1,0.1-0.1
		c0.6-3.2,3.1-5.6,6.2-6.2c0.1,0,0.1-0.1,0.1-0.2C30.8,203.7,30.8,203.6,30.7,203.6z"/>
	<path d="M226.7,131.9c-2.4,0-4.7-0.9-6.4-2.6l-94.4-94.4l-94.4,94.4c-3.5,3.5-9.3,3.5-12.8,0c-3.5-3.5-3.5-9.3,0-12.8L119.4,15.6
		c3.5-3.5,9.3-3.5,12.8,0c0,0,0,0,0,0l100.8,100.8c3.5,3.5,3.5,9.3,0,12.8C231.4,130.9,229.1,131.9,226.7,131.9L226.7,131.9z
		 M125.8,28.8c0.7,0,1.3,0.3,1.8,0.7l96.2,96.2l0,0c1.6,1.6,4.1,1.6,5.7,0c1.6-1.6,1.6-4.1,0-5.7L128.7,19.2c-1.6-1.6-4.1-1.6-5.7,0
		c0,0,0,0,0,0L22.1,120c-1.6,1.6-1.6,4.1,0,5.7c1.6,1.6,4.1,1.6,5.7,0l96.2-96.2C124.5,29,125.2,28.8,125.8,28.8z"/>
	<path d="M213.5,256H38.1c-4.9,0-8.8-3.9-8.8-8.8s3.9-8.8,8.8-8.8h175.4c4.9,0,8.8,3.9,8.8,8.8S218.4,256,213.5,256L213.5,256z
		 M38.1,243.4c-2.1,0-3.8,1.7-3.8,3.8s1.7,3.8,3.8,3.8l0,0h175.4c2.1,0,3.8-1.7,3.8-3.8s-1.7-3.8-3.8-3.8H38.1z"/>
	<path d="M208.8,243.4H42.9c-1.4,0-2.5-1.1-2.5-2.5V114.2c0-0.7,0.3-1.3,0.7-1.8l83-83c1-1,2.6-1,3.5,0l83,83
		c0.5,0.5,0.7,1.1,0.7,1.8v126.7C211.3,242.3,210.2,243.4,208.8,243.4z M45.4,238.4h160.9V115.3l-80.5-80.5l-80.5,80.5L45.4,238.4z"
		/>
	<path d="M123.7,243.4H55.5c-1.4,0-2.5-1.1-2.5-2.5v-80.8c0-1.4,1.1-2.5,2.5-2.5h68.2c1.4,0,2.5,1.1,2.5,2.5v80.8
		C126.1,242.3,125,243.4,123.7,243.4z M58,238.4h63.2v-75.8H58L58,238.4z"/>
	<path d="M123.7,150H55.5c-1.4,0-2.5-1.1-2.5-2.5v-12.6c0-1.4,1.1-2.5,2.5-2.5h68.2c1.4,0,2.5,1.1,2.5,2.5v12.6
		C126.1,148.8,125,150,123.7,150z M58,145h63.2v-7.6H58L58,145z"/>
	<path d="M196,150h-61.3c-1.4,0-2.5-1.1-2.5-2.5v-12.6c0-1.4,1.1-2.5,2.5-2.5H196c1.4,0,2.5,1.1,2.5,2.5v12.6
		C198.5,148.8,197.4,150,196,150z M137.1,145h56.4v-7.6h-56.3L137.1,145z"/>
	<path d="M123.7,162.6H55.5c-1.4,0-2.5-1.1-2.5-2.5v-12.6c0-1.4,1.1-2.5,2.5-2.5h68.2c1.4,0,2.5,1.1,2.5,2.5v12.6
		C126.1,161.4,125,162.6,123.7,162.6z M58,157.6h63.2V150H58L58,157.6z"/>
	<path d="M196,211.3h-61.3c-1.4,0-2.5-1.1-2.5-2.5v-61.3c0-1.4,1.1-2.5,2.5-2.5H196c1.4,0,2.5,1.1,2.5,2.5v61.3
		C198.5,210.2,197.4,211.3,196,211.3z M137.1,206.3h56.4V150h-56.3L137.1,206.3z"/>
	<path d="M165.3,211.3c-1.4,0-2.5-1.1-2.5-2.5v-61.3c0-1.4,1.1-2.5,2.5-2.5s2.5,1.1,2.5,2.5v61.3
		C167.8,210.2,166.7,211.3,165.3,211.3z"/>
	<path d="M196,180.6h-61.3c-1.4,0-2.5-1.1-2.5-2.5s1.1-2.5,2.5-2.5H196c1.4,0,2.5,1.1,2.5,2.5S197.4,180.6,196,180.6z"/>
</g>
</svg>
