<?xml version="1.0" encoding="UTF-8"?>
<!DOCTYPE svg PUBLIC "-//W3C//DTD SVG 1.1//EN" "http://www.w3.org/Graphics/SVG/1.1/DTD/svg11.dtd">
<!-- Creator: CorelDRAW -->
<svg xmlns="http://www.w3.org/2000/svg" xml:space="preserve" width="6.82666in" height="6.82666in" style="shape-rendering:geometricPrecision; text-rendering:geometricPrecision; image-rendering:optimizeQuality; fill-rule:evenodd; clip-rule:evenodd"
viewBox="0 0 6.82666 6.82666"
 xmlns:xlink="http://www.w3.org/1999/xlink">
 <defs>
  <style type="text/css">
   <![CDATA[
    .fil2 {fill:none}
    .fil0 {fill:#AED581}
    .fil1 {fill:#333333;fill-rule:nonzero}
   ]]>
  </style>
 </defs>
 <g id="Layer_x0020_1">
  <metadata id="CorelCorpID_0Corel-Layer"/>
  <rect class="fil0" x="0.853329" y="0.853329" width="5.12" height="5.12"/>
  <path class="fil1" d="M1.24395 5.54068c0.000720472,-0.0109409 0.0740669,-0.762142 0.205886,-1.27471 0.0382559,-0.148783 0.0817638,-0.279039 0.130457,-0.369043 0.0697165,-0.128874 0.157126,-0.192823 0.266567,-0.157583 0.0306732,0.00987008 0.0599843,0.0280906 0.0876772,0.0554606 0.0145866,0.0144213 0.0256378,0.0377441 0.0441772,0.0767992 0.0868937,0.183071 0.408579,0.860807 0.613193,0.86839 0.106303,0.00393701 0.196421,-0.235055 0.223878,-0.976083 0.0153465,-0.414248 0.105472,-0.555043 0.242283,-0.549972 0.123272,0.00456299 0.238909,0.149811 0.366016,0.309469 0.117665,0.147807 0.247571,0.310976 0.342701,0.328421 0.0791772,0.0145197 0.160197,-0.109102 0.23715,-0.528693 0.0948858,-0.517394 0.274154,-0.657807 0.475815,-0.620827 0.203114,0.0372441 0.397673,0.282028 0.544535,0.466799 0.0635591,0.0799646 0.0236457,0.198256 0.068185,0.170051 0.135417,-0.0857677 0.19824,-0.341165 0.262035,-0.600551 0.0670787,-0.272728 0.135114,-0.549343 0.304248,-0.706547l0.137579 0.147858c-0.125047,0.116224 -0.185823,0.363315 -0.245736,0.606921 -0.0735512,0.299055 -0.145984,0.593516 -0.350598,0.723102 -0.108319,0.0686024 -0.206705,-0.0551496 -0.33385,-0.215114 -0.126693,-0.15939 -0.294524,-0.370543 -0.422764,-0.394063 -0.0873937,-0.0160236 -0.173594,0.091252 -0.240992,0.45874 -0.104543,0.570031 -0.276957,0.726543 -0.471976,0.69078 -0.169909,-0.0311575 -0.324465,-0.225295 -0.464469,-0.401157 -0.0969016,-0.12172 -0.185063,-0.232457 -0.215,-0.233563 -0.0125512,-0.000464567 -0.0237441,0.0911024 -0.0335354,0.355465 -0.0331024,0.893276 -0.212181,1.17875 -0.432626,1.17059 -0.327508,-0.0121378 -0.69063,-0.777173 -0.78872,-0.983831 -0.00898425,-0.0189291 0.0082874,-0.0078622 -0.00305512,-0.0190787 -0.00479134,-0.00473622 -0.00733465,-0.0070748 -0.00782283,-0.00722835 -0.00366535,-0.00117717 -0.00699606,0.0241614 -0.0269882,0.0611181 -0.0410236,0.0758268 -0.0789094,0.19035 -0.113067,0.323185 -0.127622,0.496252 -0.198854,1.22689 -0.199555,1.23754l-0.201626 -0.0126496z"/>
  <polygon class="fil1" points="1.06667,0.853327 1.06667,5.75999 5.97333,5.75999 5.97333,5.97333 0.959996,5.97333 0.853327,5.97333 0.853327,5.86666 0.853327,0.853327 "/>
 </g>
 <rect class="fil2" width="6.82666" height="6.82666"/>
</svg>
