<?xml version="1.0" encoding="UTF-8"?><svg id="linecolor" xmlns="http://www.w3.org/2000/svg" viewBox="0 0 500 500"><rect x="22.73" y="100.9" width="454.54" height="309.9" rx="5" ry="5" fill="#346dbf"/><path d="M477.27,257.5v148.3c0,2.76-2.24,5-5,5H27.73c-2.76,0-5-2.24-5-5v-24.7c55.6,5.47,381.67,30.64,454.54-123.6Z" fill="#10569b"/><path d="M477.27,105.9v151.55l-26.1,6.99-51.63,17.57c-19.6,6.67-34.02,23.47-37.63,43.86-.75,4.22-1.75,8.39-3.01,12.47-1.25,4.09-2.75,8.1-4.49,12.02l-2.1,4.72-6.17,13.9c-3.87,8.69-16.09,8.99-20.39,.5l-2.75-5.44-.26-.51c-8.52-16.87-13.79-35.2-15.51-54.02l-1.94-21.26c-2.3-25.15-24.27-43.86-49.47-42.12l-17.87,1.23c-13.22,.91-26.21-3.87-35.68-13.13l-20.4-19.95c-10.58-10.35-25.46-15.04-40.06-12.62l-15.85,2.61c-13.09,2.17-26.49-1.37-36.8-9.72L22.73,140.79v-34.89c0-2.76,2.24-5,5-5H472.27c2.76,0,5,2.24,5,5Z" fill="#46cc2f"/><path d="M229.83,410.8H27.73c-2.76,0-5-2.24-5-5v-148.59l77.64,20.48c21.17,5.59,37.59,22.32,42.78,43.6l4.42,18.12c3.14,12.88,12.91,23.12,25.63,26.85l11.48,3.37c9.14,2.68,17.52,7.19,24.7,13.11,8.71,7.18,15.66,16.46,20.08,27.16l.37,.9Z" fill="#46cc2f"/><path d="M123.57,173.926l-17.229-17.229,17.229-17.229c3.613-3.613,3.613-9.471,0-13.084h0c-3.613-3.613-9.471-3.613-13.084,0l-17.229,17.229-17.229-17.229c-3.613-3.613-9.471-3.613-13.084,0-3.613,3.613-3.613,9.471,0,13.084l17.229,17.229-17.229,17.229c-3.613,3.613-3.613,9.471,0,13.084h0c3.613,3.613,9.471,3.613,13.084,0l17.229-17.229,17.229,17.229c3.613,3.613,9.471,3.613,13.084,0,3.613-3.613,3.613-9.471,0-13.084Z" fill="#e24949"/><path d="M399.57,312.894l-17.229-17.229,17.229-17.229c3.613-3.613,3.613-9.471,0-13.084h0c-3.613-3.613-9.471-3.613-13.084,0l-17.229,17.229-17.229-17.229c-3.613-3.613-9.471-3.613-13.084,0-3.613,3.613-3.613,9.471,0,13.084l17.229,17.229-17.229,17.229c-3.613,3.613-3.613,9.471,0,13.084h0c3.613,3.613,9.471,3.613,13.084,0l17.229-17.229,17.229,17.229c3.613,3.613,9.471,3.613,13.084,0,3.613-3.613,3.613-9.471,0-13.084Z" fill="#ffcc71"/><path d="M369.258,267.642c-2.762,0-5-2.239-5-5v-5.918c0-2.761,2.238-5,5-5s5,2.239,5,5v5.918c0,2.761-2.238,5-5,5Zm0-35.918c-2.762,0-5-2.239-5-5v-2.96c0-6.54-3.548-12.582-9.259-15.77-.689-.385-1.385-.756-2.086-1.114-2.46-1.254-3.439-4.265-2.185-6.725,1.255-2.459,4.265-3.438,6.726-2.184,.815,.415,1.621,.845,2.42,1.291,8.872,4.953,14.384,14.341,14.384,24.501v2.96c0,2.761-2.238,5-5,5Zm-132.868-29.648c-2.686,0-4.906-2.132-4.994-4.837-.09-2.76,2.074-5.07,4.834-5.161l29.984-.977c2.786-.065,5.071,2.075,5.16,4.834,.09,2.76-2.074,5.07-4.834,5.161l-29.984,.977c-.056,.001-.111,.002-.166,.002Zm59.976-1.724c-2.73,0-4.962-2.194-4.999-4.933-.037-2.761,2.171-5.03,4.933-5.067l26.92-.364c1.09-.016,2.203-.005,3.306,.03,2.76,.088,4.926,2.397,4.837,5.157-.086,2.705-2.307,4.84-4.994,4.84-.054,0-.108,0-.163-.002-.948-.03-1.895-.038-2.847-.026l-26.924,.364c-.022,0-.046,0-.068,0Zm-86.914-7.98c-1.473,0-2.931-.647-3.918-1.89-1.7-2.14-3.114-4.501-4.202-7.016-2.709-6.26-7.116-11.605-12.743-15.456-2.278-1.56-2.861-4.671-1.302-6.95,1.559-2.278,4.671-2.863,6.95-1.302,7.186,4.918,12.812,11.744,16.272,19.737,.74,1.71,1.7,3.314,2.855,4.767,1.718,2.162,1.357,5.308-.805,7.025-.92,.73-2.018,1.085-3.107,1.085Zm-46.58-30.675h-30c-2.762,0-5-2.239-5-5s2.238-5,5-5h30c2.762,0,5,2.239,5,5s-2.238,5-5,5Z" fill="#f0f4ff"/><path d="M229.46,409.9l.37,.9H27.73c-2.76,0-5-2.24-5-5v-24.7c24.54,2.41,101.76,8.67,186.65,1.64,8.71,7.18,15.66,16.46,20.08,27.16Z" fill="#4dad2a"/><path d="M352.31,355.08l-6.17,13.9c-3.87,8.69-16.09,8.99-20.39,.5l-2.75-5.44c9.97-2.67,19.77-5.65,29.31-8.96Z" fill="#4dad2a"/><g><path d="M472.27,95.9H27.73c-5.514,0-10,4.486-10,10V405.8c0,5.514,4.486,10,10,10H472.27c5.514,0,10-4.486,10-10V105.9c0-5.514-4.486-10-10-10ZM27.73,105.9H472.27V253.613l-22.394,5.997c-.357,.088-42.438,14.442-42.797,14.552,2.213-13.469-14.327-22.087-24.128-12.347l-13.693,13.693-13.694-13.693c-5.557-5.556-14.598-5.556-20.154,0-5.529,5.305-5.53,14.851,0,20.155l13.693,13.693-13.693,13.693c-2.692,2.692-4.175,6.271-4.175,10.078,.003,13.084,16.278,19.173,24.977,9.429-2.024,11.872-9.956,26.991-14.639,38.081-1.013,2.272-3.101,3.666-5.587,3.728-2.453,.066-4.647-1.228-5.773-3.451l-3.009-5.948c-8.28-16.395-13.325-33.964-14.993-52.22-2.074-22.326-1.19-39.681-19.827-55.756-32.564-27.304-58.332,4.023-86.618-22.644l-20.399-19.95c-11.677-11.423-28.271-16.647-44.369-13.979l-15.855,2.611c-11.676,1.936-23.642-1.227-32.835-8.673l-7.107-5.756,8.056-8.056,13.694,13.693c5.556,5.556,14.597,5.556,20.154,0,5.558-5.557,5.558-14.599,0-20.155l-13.693-13.693,13.693-13.693c5.529-5.305,5.53-14.85,0-20.155-5.556-5.556-14.597-5.556-20.154,0l-13.693,13.693-13.694-13.693c-5.557-5.556-14.598-5.556-20.154,0-5.529,5.305-5.53,14.851,0,20.155l13.693,13.693-10.186,10.185-35.186-28.478v-32.504Zm341.526,197.849c-1.326,0-2.598,.527-3.535,1.464l-17.228,17.229c-4.052,3.853-9.888-1.938-6.014-6.013l17.229-17.229c.938-.938,1.465-2.209,1.465-3.536s-.526-2.598-1.465-3.536l-17.23-17.229c-3.856-4.04,1.929-9.884,6.014-6.013l17.229,17.229c.938,.937,2.209,1.464,3.535,1.464s2.598-.527,3.535-1.464l17.229-17.229c4.047-3.85,9.884,1.929,6.014,6.013l-17.229,17.229c-.939,.938-1.465,2.209-1.465,3.536s.526,2.598,1.465,3.536l17.229,17.229c3.85,4.049-1.93,9.882-6.014,6.013l-17.229-17.229c-.938-.937-2.209-1.464-3.535-1.464ZM66.479,177.461l17.229-17.229c.939-.937,1.465-2.209,1.465-3.536s-.526-2.598-1.465-3.536l-17.229-17.229c-1.648-1.582-1.65-4.431,0-6.013,1.658-1.657,4.355-1.657,6.014,0l17.229,17.229c.938,.937,2.209,1.464,3.535,1.464s2.598-.527,3.535-1.464l17.229-17.229c1.658-1.657,4.355-1.657,6.014,0,1.657,1.658,1.657,4.355,0,6.013l-17.229,17.229c-.939,.937-1.465,2.209-1.465,3.536s.526,2.598,1.465,3.536l17.229,17.229c1.657,1.658,1.657,4.355,0,6.013-1.658,1.658-4.355,1.657-6.014,0l-17.23-17.229c-1.861-1.937-5.209-1.936-7.07,0l-17.228,17.229c-4.052,3.853-9.888-1.938-6.014-6.013ZM27.73,405.8v-142.1l71.363,18.825c19.419,5.128,34.439,20.436,39.199,39.951l4.42,18.119c3.552,14.573,14.695,26.246,29.079,30.463l11.479,3.37c16.756,4.923,30.568,16.195,38.723,31.373H27.73Zm205.373,0c-8.97-19.909-25.968-34.782-47.016-40.967l-11.48-3.371c-10.972-3.217-19.47-12.12-22.18-23.237l-4.42-18.12c-5.629-23.08-23.393-41.185-46.362-47.25l-73.915-19.498v-102.089l28.79,23.301c-5.982,13.451,9.636,25.928,21.435,17.338l8.058,6.526c11.415,9.246,26.275,13.172,40.759,10.768l15.855-2.611c12.975-2.149,26.34,2.058,35.747,11.262l20.4,19.951c10.483,10.25,24.889,15.549,39.52,14.543l17.871-1.23c22.278-1.537,42.11,15.321,44.145,37.586l1.941,21.26c1.874,21.741,8.692,42.571,19.038,61.774,6.001,12.175,24.021,11.759,29.42-.73,3.517-8.164,10.608-22.826,12.969-31.195,2.582-7.559,3.023-15.981,6.145-23.429l13.128,13.127c5.557,5.556,14.598,5.556,20.154,0,5.558-5.557,5.558-14.599,0-20.155l-13.693-13.693,7.044-7.044c-.541-.355,54.537-18.744,56.167-19.394l19.646-5.261v141.834H233.104Z" fill="#363b40"/><path d="M352.913,206.88c8.252,3.793,11.96,10.919,11.345,19.844,.199,6.6,9.797,6.614,10,0v-2.96c.066-11.149-6.73-21.19-16.804-25.793-5.976-2.817-10.339,5.723-4.541,8.909Z" fill="#363b40"/><path d="M127.871,156.697c0,2.761,2.238,5,5,5h30c2.762,0,5-2.239,5-5s-2.238-5-5-5h-30c-2.762,0-5,2.239-5,5Z" fill="#363b40"/><path d="M369.258,251.724c-2.762,0-5,2.239-5,5v5.918c.203,6.607,9.797,6.609,10,0v-5.918c0-2.761-2.238-5-5-5Z" fill="#363b40"/><path d="M296.365,200.352c1.394,.005,29.713-.464,30.002-.336,6.491-.183,6.665-9.599,.157-9.997-.764-.072-28.495,.292-30.226,.334-6.557,.282-6.504,9.801,.066,9.999Z" fill="#363b40"/><path d="M188.588,168.01c5.627,3.851,10.034,9.197,12.743,15.456,1.088,2.515,2.502,4.876,4.202,7.016,1.726,2.173,4.879,2.513,7.025,.805,2.162-1.718,2.522-4.863,.805-7.025-1.154-1.453-2.114-3.056-2.855-4.767-3.46-7.994-9.087-14.819-16.272-19.737-5.561-3.563-10.99,4.346-5.648,8.252Z" fill="#363b40"/><path d="M236.39,202.076c.102,.012,30.019-.984,30.151-.98,6.575-.418,6.314-9.981-.326-9.995l-29.984,.977c-6.493,.399-6.342,9.81,.16,9.998Z" fill="#363b40"/></g></svg>