<?xml version="1.0" encoding="UTF-8"?>
<!DOCTYPE svg PUBLIC "-//W3C//DTD SVG 1.1//EN" "http://www.w3.org/Graphics/SVG/1.1/DTD/svg11.dtd">
<!-- Creator: CorelDRAW -->
<svg xmlns="http://www.w3.org/2000/svg" xml:space="preserve" width="6.82666in" height="6.82666in" style="shape-rendering:geometricPrecision; text-rendering:geometricPrecision; image-rendering:optimizeQuality; fill-rule:evenodd; clip-rule:evenodd"
viewBox="0 0 6.82666 6.82666"
 xmlns:xlink="http://www.w3.org/1999/xlink">
 <defs>
  <style type="text/css">
   <![CDATA[
    .fil3 {fill:none}
    .fil0 {fill:#C794BE}
    .fil2 {fill:#F19A7B}
    .fil1 {fill:#333333;fill-rule:nonzero}
   ]]>
  </style>
 </defs>
 <g id="Layer_x0020_1">
  <metadata id="CorelCorpID_0Corel-Layer"/>
  <rect class="fil0" x="0.853329" y="0.853329" width="5.12" height="5.12"/>
  <path class="fil1" d="M1.41875 3.65828l1.5201 0.481409 0.916567 -1.52761 0.0638858 -0.10648 0.0952835 0.0793976 0.546165 0.455142 1.00179 -1.61563 0.196669 0.0558346 0.000377953 3.95965 7.87402e-006 0.106669 -0.10626 0 -4.26667 0 -0.106669 0 0 -0.106669 0 -1.68005 0 -0.14561 0.138752 0.0439449zm1.53583 0.710043l-1.46125 -0.462772 0 1.42777 4.05374 0 -0.000330709 -3.48003 -0.869657 1.40253 -0.0645039 0.104028 -0.0938307 -0.0781969 -0.54472 -0.453933 -0.89611 1.49352 -0.0434291 0.0723858 -0.0799055 -0.0253031z"/>
  <polygon class="fil2" points="3.97403,2.82773 3.07792,4.32124 3.03449,4.39363 2.95458,4.36833 1.49333,3.90556 1.49333,5.33333 5.54707,5.33333 5.54674,1.8533 4.67708,3.25583 4.61258,3.35986 4.51875,3.28166 "/>
  <polygon class="fil1" points="1.06667,0.853327 1.06667,5.75999 5.97333,5.75999 5.97333,5.97333 0.959996,5.97333 0.853327,5.97333 0.853327,5.86666 0.853327,0.853327 "/>
 </g>
 <rect class="fil3" width="6.82666" height="6.82666"/>
</svg>
