<?xml version="1.0" encoding="UTF-8"?>
<!DOCTYPE svg PUBLIC "-//W3C//DTD SVG 1.1//EN" "http://www.w3.org/Graphics/SVG/1.1/DTD/svg11.dtd">
<!-- Creator: CorelDRAW -->
<svg xmlns="http://www.w3.org/2000/svg" xml:space="preserve" width="6.82666in" height="6.82666in" style="shape-rendering:geometricPrecision; text-rendering:geometricPrecision; image-rendering:optimizeQuality; fill-rule:evenodd; clip-rule:evenodd"
viewBox="0 0 6.82666 6.82666"
 xmlns:xlink="http://www.w3.org/1999/xlink">
 <defs>
  <style type="text/css">
   <![CDATA[
    .fil4 {fill:none}
    .fil1 {fill:#63CBE5}
    .fil2 {fill:#AED581}
    .fil0 {fill:#FECA5F}
    .fil3 {fill:#333333;fill-rule:nonzero}
   ]]>
  </style>
 </defs>
 <g id="Layer_x0020_1">
  <metadata id="CorelCorpID_0Corel-Layer"/>
  <path class="fil0" d="M4.61913 2.3553c0,0.000122047 3.93701e-006,0.000244094 7.87402e-006,0.000370079l-7.87402e-006 -0.000370079zm0.12748 0.0705787c0.111713,0.0398937 0.268193,0.0645748 0.442945,0.0645748 0.174756,0 0.331236,-0.0246811 0.442945,-0.0645748 0.0787638,-0.0281299 0.127484,-0.0538819 0.127484,-0.0705787 0,-0.0746417 -0.25539,-0.13515 -0.570429,-0.13515 -0.174752,0 -0.331232,0.0246811 -0.442945,0.0645748 -0.0787598,0.028126 -0.12748,0.0538819 -0.127472,0.0705748l-0.213346 0c0,0.000590551 3.93701e-006,0.0011811 7.87402e-006,0.00176772l-7.87402e-006 2.60087 7.87402e-006 0.00177165c2.3622e-005,0.00243307 8.66142e-005,0.00485827 0.00019685,0.00727165l0.213142 0 0 -0.00867323c-3.93701e-006,-0.000122047 -7.87402e-006,-0.000248031 -7.87402e-006,-0.000370079l7.87402e-006 -2.35356 0 -0.248705c0.000708661,0.0167047 0.0492913,0.0422835 0.127472,0.0702087z"/>
  <path class="fil1" d="M2.8429 1.86872c0,0.000240157 3.93701e-006,0.000480315 7.87402e-006,0.000716535l-7.87402e-006 -0.000716535zm0.570429 0.13515c0.174752,0 0.331232,-0.0246811 0.442945,-0.0645748 0.0787638,-0.028126 0.127484,-0.053878 0.127484,-0.0705748 0,-0.0746417 -0.25539,-0.135154 -0.570429,-0.135154 -0.174756,0 -0.331236,0.0246811 -0.442945,0.0645748 -0.0787638,0.0281299 -0.127484,0.0538819 -0.127476,0.0705787l-0.213346 0c0,0.000527559 3.93701e-006,0.00105118 7.87402e-006,0.00157874l-7.87402e-006 2.60105 7.87402e-006 0.00157874c2.3622e-005,0.00249606 0.000110236,0.00498425 0.000251969,0.0074685l0.213087 0 0 -0.00833071c-3.93701e-006,-0.000240157 -7.87402e-006,-0.000476378 -7.87402e-006,-0.000716535l7.87402e-006 -2.36364 0 -0.238276c0.00162992,0.0743071 0.256394,0.134433 0.570421,0.134433z"/>
  <path class="fil2" d="M1.06667 2.3553c0,0.000240157 3.93701e-006,0.000480315 7.87402e-006,0.000716535l-7.87402e-006 -0.000716535zm0.570429 0.135154c0.174752,0 0.331232,-0.0246811 0.442945,-0.0645748 0.0787598,-0.0281299 0.12748,-0.0538819 0.12748,-0.0705787 0,-0.0166929 -0.0487205,-0.0424488 -0.12748,-0.0705748 -0.111713,-0.0398937 -0.268193,-0.0645748 -0.442945,-0.0645748 -0.174752,0 -0.331236,0.0246811 -0.442949,0.0645748 -0.0787598,0.028126 -0.12748,0.0538819 -0.127472,0.0705748l-0.213346 0c0,0.000527559 3.93701e-006,0.00105118 7.87402e-006,0.00157874l-7.87402e-006 2.60106 7.87402e-006 0.00157874c2.3622e-005,0.00249606 0.000110236,0.00498425 0.000251969,0.00746457l0.213087 0 0 -0.00832677c-3.93701e-006,-0.000240157 -7.87402e-006,-0.000476378 -7.87402e-006,-0.000716535l7.87402e-006 -2.36364 0 -0.23828c0.00162992,0.074311 0.256394,0.134437 0.570421,0.134437z"/>
  <path class="fil3" d="M3.41333 1.52023c0.432862,0 0.783768,0.156028 0.783768,0.348492 0,0.11685 -0.102858,0.212024 -0.269154,0.271409 -0.133343,0.0476181 -0.315421,0.0770787 -0.514614,0.0770787 -0.432862,0 -0.783768,-0.156028 -0.783768,-0.348488 0,-0.116858 0.102862,-0.21202 0.269154,-0.271413 0.133339,-0.047622 0.315421,-0.0770787 0.514614,-0.0770787zm0.570429 0.348492c0,-0.0746417 -0.25539,-0.135154 -0.570429,-0.135154 -0.174756,0 -0.331236,0.0246811 -0.442945,0.0645748 -0.0787638,0.0281299 -0.127484,0.0538819 -0.127484,0.0705787 0,0.0746378 0.25539,0.13515 0.570429,0.13515 0.174752,0 0.331232,-0.0246811 0.442945,-0.0645748 0.0787638,-0.028126 0.127484,-0.053878 0.127484,-0.0705748z"/>
  <path class="fil3" d="M4.19709 4.47135c0,0.11685 -0.102858,0.21202 -0.26915,0.271409 -0.133343,0.0476181 -0.315425,0.0770787 -0.514618,0.0770787 -0.432862,0 -0.783768,-0.156024 -0.783768,-0.348488l0.213339 0c0,0.0746417 0.25539,0.13515 0.570429,0.13515 0.174752,0 0.331236,-0.0246811 0.442949,-0.0645748 0.0787598,-0.028126 0.12748,-0.0538819 0.12748,-0.0705748l0.213339 0z"/>
  <polygon class="fil3" points="4.19709,1.86872 4.19709,4.4804 3.98376,4.4804 3.98376,1.86872 "/>
  <polygon class="fil3" points="2.84291,1.86872 2.84291,4.4804 2.62957,4.4804 2.62957,1.86872 "/>
  <path class="fil3" d="M5.18956 2.00681c0.432862,0 0.783768,0.156024 0.783768,0.348488 0,0.116858 -0.102862,0.21202 -0.269154,0.271413 -0.133339,0.047622 -0.315421,0.0770787 -0.514614,0.0770787 -0.199193,0 -0.381272,-0.0294606 -0.514614,-0.0770787 -0.166287,-0.0593937 -0.26915,-0.154563 -0.26915,-0.271413 0,-0.11685 0.102858,-0.21202 0.26915,-0.271409 0.133343,-0.0476181 0.315421,-0.0770787 0.514614,-0.0770787zm0.570429 0.348488c0,-0.0746417 -0.25539,-0.13515 -0.570429,-0.13515 -0.174752,0 -0.331232,0.0246811 -0.442945,0.0645748 -0.0787598,0.028126 -0.12748,0.0538819 -0.12748,0.0705748 0,0.0166969 0.0487205,0.0424488 0.12748,0.0705787 0.111713,0.0398937 0.268193,0.0645748 0.442945,0.0645748 0.174756,0 0.331236,-0.0246811 0.442945,-0.0645748 0.0787638,-0.0281299 0.127484,-0.0538819 0.127484,-0.0705787z"/>
  <path class="fil3" d="M5.97333 4.95793c0,0.116858 -0.102862,0.21202 -0.269154,0.271413 -0.133339,0.047622 -0.315421,0.0770787 -0.514614,0.0770787 -0.199193,0 -0.381272,-0.0294606 -0.514614,-0.0770787 -0.166287,-0.0593937 -0.26915,-0.154559 -0.26915,-0.271413l0.213339 0c0,0.0166929 0.0487205,0.0424488 0.12748,0.0705787 0.111713,0.0398937 0.268193,0.0645748 0.442945,0.0645748 0.174756,0 0.331236,-0.0246811 0.442945,-0.0645748 0.0787638,-0.0281299 0.127484,-0.0538819 0.127484,-0.0705787l0.213339 0z"/>
  <polygon class="fil3" points="5.97333,2.3553 5.97333,4.96698 5.75999,4.96698 5.75999,2.3553 "/>
  <polygon class="fil3" points="4.61914,2.3553 4.61914,4.96698 4.4058,4.96698 4.4058,2.3553 "/>
  <path class="fil3" d="M1.6371 2.00681c0.199193,0 0.381272,0.0294606 0.514614,0.0770787 0.166291,0.0593898 0.26915,0.154559 0.26915,0.271409 0,0.11685 -0.102862,0.21202 -0.26915,0.271413 -0.133343,0.0476181 -0.315421,0.0770787 -0.514614,0.0770787 -0.432862,0 -0.783768,-0.156028 -0.783768,-0.348492 0,-0.11685 0.102858,-0.21202 0.26915,-0.271409 0.133343,-0.0476181 0.315425,-0.0770787 0.514618,-0.0770787zm0.442945 0.277913c-0.111713,-0.0398937 -0.268193,-0.0645748 -0.442945,-0.0645748 -0.174752,0 -0.331236,0.0246811 -0.442949,0.0645748 -0.0787598,0.028126 -0.12748,0.0538819 -0.12748,0.0705748 0,0.0746417 0.25539,0.135154 0.570429,0.135154 0.174752,0 0.331232,-0.0246811 0.442945,-0.0645748 0.0787598,-0.0281299 0.12748,-0.0538819 0.12748,-0.0705787 0,-0.0166929 -0.0487205,-0.0424488 -0.12748,-0.0705748z"/>
  <path class="fil3" d="M2.42086 4.95793c0,0.116854 -0.102862,0.21202 -0.26915,0.271413 -0.133343,0.0476181 -0.315421,0.0770787 -0.514614,0.0770787 -0.432862,0 -0.783768,-0.156028 -0.783768,-0.348492l0.213339 0c0,0.0746417 0.25539,0.135154 0.570429,0.135154 0.174752,0 0.331232,-0.0246811 0.442945,-0.0645748 0.0787598,-0.0281299 0.12748,-0.0538858 0.12748,-0.0705787l0.213339 0z"/>
  <polygon class="fil3" points="2.42086,2.3553 2.42086,4.96698 2.20752,4.96698 2.20752,2.3553 "/>
  <polygon class="fil3" points="1.06668,2.3553 1.06668,4.96698 0.853339,4.96698 0.853339,2.3553 "/>
  <path class="fil2" d="M1.6371 2.70379c-0.224803,0 -0.4275,-0.0420827 -0.570421,-0.109496l-7.87402e-006 2.36364 7.87402e-006 0.000716535c0.00162992,0.074311 0.25639,0.134437 0.570421,0.134437 0.174752,0 0.331232,-0.0246811 0.442945,-0.0645748 0.0787598,-0.0281299 0.12748,-0.0538858 0.12748,-0.0705787l0 -2.35356c-0.017689,0.0079252 -0.036315,0.015378 -0.055811,0.0223425 -0.133343,0.0476181 -0.315421,0.0770787 -0.514614,0.0770787z"/>
  <path class="fil1" d="M3.41333 2.21721c-0.224803,0 -0.4275,-0.0420827 -0.570421,-0.109496l-7.87402e-006 2.36364 7.87402e-006 0.000716535c0.00162992,0.074311 0.25639,0.134433 0.570421,0.134433 0.174752,0 0.331236,-0.0246811 0.442949,-0.0645748 0.0787598,-0.028126 0.12748,-0.0538819 0.12748,-0.0705748l0 -2.35356c-0.017689,0.0079252 -0.036315,0.015378 -0.055815,0.0223425 -0.133343,0.0476181 -0.315421,0.0770787 -0.514614,0.0770787z"/>
  <path class="fil0" d="M4.61914 2.60437l-7.87402e-006 2.35356 7.87402e-006 0.000370079c0.000712598,0.0167008 0.0492913,0.0422874 0.127472,0.0702087 0.111713,0.0398937 0.268193,0.0645748 0.442945,0.0645748 0.174756,0 0.331236,-0.0246811 0.442945,-0.0645748 0.0787638,-0.0281299 0.127484,-0.0538819 0.127484,-0.0705787l0 -2.35357c-0.017689,0.0079252 -0.036315,0.0153819 -0.055815,0.0223465 -0.133339,0.047622 -0.315421,0.0770787 -0.514614,0.0770787 -0.199193,0 -0.381272,-0.0294606 -0.514614,-0.0770787 -0.0194921,-0.00696457 -0.0381142,-0.0144173 -0.0558031,-0.0223386z"/>
 </g>
 <rect class="fil4" width="6.82666" height="6.82666"/>
</svg>
