<?xml version="1.0" encoding="utf-8"?>
<!-- Generator: Adobe Illustrator 21.0.0, SVG Export Plug-In . SVG Version: 6.00 Build 0)  -->
<svg version="1.1" id="Layer_1" xmlns="http://www.w3.org/2000/svg" xmlns:xlink="http://www.w3.org/1999/xlink" x="0px" y="0px"
	 viewBox="0 0 256 256" style="enable-background:new 0 0 256 256;" xml:space="preserve">
<style type="text/css">
	.st0{fill:#55ACD5;}
	.st1{fill:#6DCC6D;}
	.st2{fill:#FFCD29;}
	.st3{fill:#EA4647;}
</style>
<g id="Layer_8">
	<circle class="st0" cx="128" cy="128" r="112.3"/>
	<path class="st1" d="M230.1,129.9h-0.3c-3.4,0-6.2-2.8-6.2-6.2l0,0l0,0c0-2.5,1.5-4.7,3.8-5.7l11.9-5.1
		c-5.5-40.1-32.1-74.1-69.6-89.1v15.7c0,4.7,3.8,8.5,8.5,8.5l0,0c4.7,0,8.5,3.8,8.5,8.5v26c0,1.8-0.8,3.5-2.2,4.7l0,0
		c-4,3.5-6.3,8.5-6.3,13.8v1.6c0,9.7,4.6,18.8,12.3,24.6l17.2,12.9c1.1,0.8,2.4,1.2,3.7,1.2h6.4c3.4,0,6.2,2.8,6.2,6.2c0,0,0,0,0,0
		v4.1c0,1.9-0.9,3.7-2.4,4.9l-4.2,3.2c-15.3,11.9-20.6,32.7-12.8,50.5l0,0c20.6-19.2,33.2-45.4,35.4-73.4l-5.5-5.2
		C233.2,130.5,231.7,129.9,230.1,129.9z"/>
	<path class="st1" d="M128,15.7C67.3,15.7,17.6,64,15.8,124.6l24.1-24.1c2.1-2.1,5.5-2.1,7.6,0c0.3,0.3,0.5,0.5,0.7,0.8l0,0
		c4.2,6.3,7.7,13.1,10.5,20.2l4.3,11.1c2.3,5.9,6.7,10.8,12.4,13.7l15.5,7.8c0.8,0.4,1.4,1,1.7,1.8l2.3,5.7c0.5,1.3,1.9,2.2,3.3,2.2
		l0,0c2,0,3.6-1.6,3.6-3.6c0-0.3,0-0.5-0.1-0.8l-2-9c-0.2-0.7-0.6-1.4-1.1-1.9l-14.4-12.7c-1.1-0.9-1.5-2.4-1-3.8l5-15.8
		c0.5-1.5,1.8-2.5,3.4-2.5l0,0c7.2,0,14.2-2.4,19.8-6.8l16.9-13.3c4.3-3.4,6.9-8.6,6.9-14.1l0,0c0-6.9-4-13.2-10.2-16.2l-3.5-1.7
		c-1.2-0.6-2-1.8-2-3.2v-7.8c0-1,0.4-1.9,1.1-2.5l18.1-17.9c0.7-0.7,1.6-1,2.5-1h6.3c2,0,3.6-1.6,3.6-3.6v-7.7
		C143.4,16.5,135.7,15.7,128,15.7z"/>
	<path class="st1" d="M148.6,175.4L148.6,175.4c-2.9,0-5.2,2.3-5.2,5.2l0,0l0,0c0,2.6-1.6,5-4,6l-10.8,4.6c-4.1,1.8-8.5,2.7-13,2.7
		H99.5c-4.5,0-8.1,3.6-8.1,8.1l0,0c0,4.5-3.6,8.1-8.1,8.1h-3.8c-4.5,0-8.1,3.6-8.1,8.1v6.7c32.3,18.8,71.8,20.4,105.5,4.1v-4.8
		c0-6.9-1.4-13.7-4-20l0,0c-2.2-5.2-5.2-10.1-9-14.3l-11.4-12.8C151.5,176,150.1,175.4,148.6,175.4z"/>
	<path class="st1" d="M31.1,122.5l-4,4.5c-0.8,0.9-1.2,2-1.2,3.2v3.1c0,2.7,2.2,4.9,4.9,4.9c0,0,0,0,0,0l0,0c2.7,0,4.9-2.2,4.9-4.9
		l0,0v-9.1c0-1.5-1.2-2.6-2.6-2.6l0,0l0,0C32.3,121.6,31.6,121.9,31.1,122.5z"/>
	<path class="st1" d="M147,40.2L136.6,51c-1.1,1.1-1,2.8,0.1,3.9c0.5,0.5,1.2,0.8,1.9,0.8l0,0c7.2,0,13.1-5.9,13.1-13.1v-0.4
		c0-1.5-1.2-2.7-2.8-2.7C148.2,39.4,147.5,39.7,147,40.2z"/>
	<path class="st1" d="M137.5,104.9l-2.7,3.9c-1.2,1.7-2.9,3.2-4.8,4.1l-10.6,5.4c-1.2,0.6-2,1.9-2,3.3l0,0c0,2,1.6,3.6,3.6,3.6
		c0,0,0,0,0,0l0,0c1.3,0,2.5-0.2,3.7-0.7l12.2-4.5c5.8-2.1,10.6-6.4,13.4-11.9l0,0c1.3-2.5,0.3-5.7-2.2-7c-0.7-0.4-1.5-0.6-2.4-0.6
		l0,0C142.5,100.7,139.4,102.3,137.5,104.9z"/>
	<path class="st1" d="M56.9,246.7h-1.8v-1.8c0-1.4-1.1-2.5-2.5-2.5s-2.5,1.1-2.5,2.5v1.8h-1.8c-1.4,0-2.5,1.1-2.5,2.5
		s1.1,2.5,2.5,2.5h1.8v1.8c0,1.4,1.1,2.5,2.5,2.5s2.5-1.1,2.5-2.5v-1.8h1.8c1.4,0,2.5-1.1,2.5-2.5S58.3,246.7,56.9,246.7z"/>
	<path class="st1" d="M182.6,15.2c0-0.2-0.1-0.3-0.1-0.5c-0.1-0.1-0.1-0.3-0.2-0.4c-0.1-0.1-0.2-0.3-0.3-0.4c-1-0.9-2.5-0.9-3.5,0
		c-0.1,0.1-0.2,0.2-0.3,0.4c-0.2,0.3-0.3,0.6-0.4,0.9c-0.1,0.3-0.1,0.7,0,1c0,0.2,0.1,0.3,0.1,0.5c0.1,0.2,0.1,0.3,0.2,0.4
		c0.1,0.1,0.2,0.3,0.3,0.4c1,1,2.5,1,3.5,0c0,0,0,0,0,0c0.1-0.1,0.2-0.2,0.3-0.4c0.1-0.1,0.2-0.3,0.2-0.4c0.1-0.1,0.1-0.3,0.1-0.5
		C182.6,15.9,182.6,15.6,182.6,15.2z"/>
	<path class="st0" d="M49,223.8c0-0.2-0.1-0.3-0.1-0.5c-0.1-0.1-0.1-0.3-0.2-0.4c-0.1-0.1-0.2-0.3-0.3-0.4c-1-0.9-2.5-0.9-3.5,0
		c-0.1,0.1-0.2,0.2-0.3,0.4c-0.2,0.3-0.3,0.6-0.4,0.9c-0.1,0.3-0.1,0.7,0,1c0,0.2,0.1,0.3,0.1,0.5c0.1,0.2,0.1,0.3,0.2,0.4
		c0.1,0.1,0.2,0.3,0.3,0.4c1,1,2.5,1,3.5,0c0,0,0,0,0,0c0.1-0.1,0.2-0.2,0.3-0.4c0.1-0.1,0.2-0.3,0.2-0.4c0.1-0.1,0.1-0.3,0.1-0.5
		C49.1,224.5,49.1,224.1,49,223.8z"/>
	<path class="st2" d="M210.1,8.2c-4.1-0.8-7.2-4-8-8c0-0.1-0.1-0.2-0.2-0.2c-0.1,0-0.1,0.1-0.2,0.2c-0.8,4.1-4,7.2-8,8
		c-0.1,0-0.2,0.1-0.2,0.2c0,0.1,0.1,0.1,0.2,0.2c4.1,0.8,7.2,4,8,8c0,0.1,0.1,0.2,0.2,0.2c0.1,0,0.1-0.1,0.2-0.2c0.8-4.1,4-7.2,8-8
		c0.1,0,0.2-0.1,0.2-0.2C210.3,8.2,210.2,8.2,210.1,8.2z"/>
	<path class="st3" d="M30,210.8c-2.6-0.5-4.6-2.5-5.1-5.1c0-0.1-0.1-0.1-0.1-0.1c0,0-0.1,0-0.1,0.1c-0.5,2.6-2.5,4.6-5.1,5.1
		c-0.1,0-0.1,0.1-0.1,0.1c0,0,0,0.1,0.1,0.1c2.6,0.5,4.6,2.5,5.1,5.1c0,0.1,0.1,0.1,0.1,0.1c0,0,0.1,0,0.1-0.1
		c0.5-2.6,2.5-4.6,5.1-5.1C30.1,211,30.1,210.9,30,210.8C30.1,210.8,30.1,210.8,30,210.8z"/>
	<path d="M128,242.8c-63.4,0-114.8-51.4-114.8-114.8S64.6,13.2,128,13.2S242.8,64.6,242.8,128C242.7,191.3,191.3,242.7,128,242.8z
		 M128,18.2C67.4,18.2,18.2,67.4,18.2,128S67.4,237.8,128,237.8S237.8,188.6,237.8,128v0C237.7,67.4,188.6,18.3,128,18.2z"/>
	<path d="M169.6,183.7c-1.1,0-2-0.7-2.4-1.7l-2-5.8c-0.5-1.3,0.2-2.7,1.5-3.2c1.3-0.5,2.7,0.2,3.2,1.5c0,0,0,0.1,0,0.1l2,5.8
		c0.4,1.3-0.3,2.7-1.6,3.2C170.1,183.7,169.8,183.7,169.6,183.7L169.6,183.7z"/>
	<path d="M159.9,58.1c-1.4,0-2.5-1.1-2.5-2.5v-3.8c0-1.4,1.1-2.5,2.5-2.5s2.5,1.1,2.5,2.5v3.8C162.4,57,161.3,58.1,159.9,58.1z"/>
	<path d="M198.1,148.4c-0.5,0-0.9-0.1-1.3-0.4l-4.3-2.7c-1.2-0.7-1.5-2.3-0.8-3.4s2.3-1.5,3.4-0.8l0,0l4.3,2.7
		c1.2,0.7,1.5,2.3,0.8,3.4C199.8,147.9,198.9,148.4,198.1,148.4L198.1,148.4z"/>
	<path d="M202.1,158c-0.2,0-0.3,0-0.5-0.1c-0.2,0-0.3-0.1-0.5-0.1c-0.1-0.1-0.3-0.1-0.4-0.2c-0.1-0.1-0.3-0.2-0.4-0.3
		c-0.1-0.1-0.2-0.2-0.3-0.4c-0.1-0.1-0.2-0.3-0.2-0.4c-0.1-0.2-0.1-0.3-0.1-0.5c0-0.2,0-0.3-0.1-0.5c0-0.5,0.1-1,0.4-1.4
		c0.1-0.1,0.2-0.3,0.3-0.4c0.1-0.1,0.2-0.2,0.4-0.3c0.1-0.1,0.3-0.2,0.4-0.2c0.9-0.4,2-0.2,2.7,0.5c0.1,0.1,0.2,0.2,0.3,0.4
		c0.2,0.3,0.3,0.6,0.4,0.9c0,0.2,0,0.3,0.1,0.5c0,0.3-0.1,0.7-0.2,1c-0.1,0.2-0.1,0.3-0.2,0.4c-0.1,0.1-0.2,0.3-0.3,0.4
		C203.4,157.8,202.7,158,202.1,158z"/>
	<path d="M204.5,212.6c-1,0-1.9-0.6-2.3-1.5c-8.3-18.8-2.7-40.9,13.6-53.5l4.2-3.2c0.9-0.7,1.4-1.8,1.4-2.9v-4.1
		c0-2.1-1.7-3.7-3.7-3.7h-6.4c-1.9,0-3.7-0.6-5.2-1.7l-17.2-12.9c-8.4-6.3-13.3-16.2-13.3-26.6v-1.6c0-6,2.6-11.8,7.2-15.7
		c0.8-0.7,1.3-1.7,1.3-2.8v-26c0-3.3-2.7-6-6-6c-6.1,0-11-4.9-11-11V23.7c0-1.4,1.1-2.5,2.5-2.5c0.3,0,0.6,0.1,0.9,0.2
		c38.4,15.3,65.6,50.1,71.2,91.1c0.2,1.1-0.5,2.2-1.5,2.6l-11.9,5.1c-1.9,0.8-2.8,3-2,4.9c0.6,1.4,1.9,2.3,3.4,2.3h0.3
		c2.2,0,4.3,0.8,5.9,2.3l5.5,5.2c0.6,0.5,0.8,1.3,0.8,2c-2.2,28.7-15.1,55.5-36.2,75.1C205.8,212.4,205.2,212.6,204.5,212.6z
		 M172.1,27.5v11.9c0,3.3,2.7,6,6,6c6.1,0,11,4.9,11,11v26c0,2.5-1.1,5-3,6.6c-3.5,3-5.5,7.4-5.5,12v1.6c0,8.9,4.2,17.3,11.3,22.6
		l17.2,12.9c0.6,0.5,1.4,0.7,2.2,0.7h6.4c4.8,0,8.7,3.9,8.7,8.7v4.1c0,2.7-1.2,5.3-3.4,6.9l-4.2,3.2c-13.4,10.4-18.8,28-13.4,44.1
		c18.3-18.2,29.6-42.3,31.8-68l-4.7-4.3c-0.7-0.6-1.6-1-2.5-1h-0.3c-4.8,0-8.7-3.9-8.7-8.7c0-3.5,2.1-6.6,5.3-8l10.1-4.3
		C230.7,74.2,206.5,42.6,172.1,27.5z"/>
	<path d="M98.2,166.4c-2.5,0-4.7-1.5-5.6-3.8l-2.3-5.7c-0.1-0.2-0.3-0.4-0.5-0.6l-15.5-7.8c-6.2-3.1-11.1-8.5-13.6-15l-4.3-11.1
		c-2.7-6.9-6.1-13.6-10.2-19.7c-0.9-1.3-2.7-1.7-4-0.8c-0.2,0.1-0.3,0.2-0.4,0.4l-24.1,24.1c-1,1-2.6,1-3.5,0
		c-0.5-0.5-0.8-1.2-0.7-1.8C15.2,62.6,66,13.2,128,13.2c7.9,0,15.7,0.8,23.4,2.4c1.2,0.2,2,1.3,2,2.4v7.7c0,3.3-2.7,6.1-6.1,6.1
		h-6.3c-0.3,0-0.5,0.1-0.7,0.3l-18.1,17.9c-0.2,0.2-0.3,0.5-0.3,0.8v7.8c0,0.4,0.2,0.8,0.6,1l3.5,1.7c7.1,3.4,11.6,10.6,11.6,18.4
		c0,6.3-2.9,12.2-7.8,16L112.9,109c-6.1,4.8-13.6,7.4-21.4,7.4c-0.5,0-0.9,0.3-1,0.7l-5,15.8c-0.1,0.4,0,0.8,0.3,1.1l14.4,12.7
		c1,0.8,1.6,2,1.9,3.2l2,9c0.7,3.3-1.3,6.5-4.6,7.2C99.1,166.3,98.6,166.4,98.2,166.4L98.2,166.4z M43.7,96.4c0.3,0,0.5,0,0.8,0
		c2.4,0.2,4.5,1.5,5.8,3.5c4.3,6.5,7.9,13.4,10.8,20.7l4.3,11.1c2.1,5.4,6.1,9.8,11.2,12.3l15.5,7.8c1.3,0.7,2.3,1.8,2.9,3.1
		l2.3,5.7c0.2,0.5,0.8,0.8,1.4,0.6c0.5-0.2,0.8-0.7,0.6-1.2l-2-9c0-0.2-0.2-0.4-0.3-0.6l-14.4-12.7c-1.8-1.6-2.5-4.1-1.8-6.4l5-15.8
		c0.8-2.5,3.1-4.2,5.8-4.2c6.6,0,13.1-2.2,18.3-6.3l16.9-13.3c3.7-2.9,5.9-7.4,5.9-12.1c0-5.9-3.4-11.3-8.8-13.9l-3.5-1.7
		c-2.1-1-3.5-3.1-3.5-5.5v-7.8c0-1.6,0.6-3.2,1.8-4.3l18.1-17.9c1.1-1.1,2.7-1.8,4.3-1.8h6.3c0.6,0,1.1-0.5,1.1-1.1v-5.7
		c-6.7-1.3-13.6-1.9-20.4-1.9c-56.8,0-104.3,43.4-109.3,100l19.5-19.5C39.6,97.3,41.6,96.4,43.7,96.4z"/>
	<path d="M128,242.8c-20.3,0-40.3-5.4-57.8-15.6c-0.8-0.4-1.2-1.3-1.2-2.2v-6.7c0-5.9,4.8-10.6,10.6-10.6h3.8c3.1,0,5.6-2.5,5.6-5.6
		c0-5.9,4.8-10.6,10.6-10.6h16.1c4.1,0,8.2-0.8,12-2.5l10.8-4.6c1.5-0.6,2.5-2.1,2.5-3.7c0-4.2,3.4-7.7,7.7-7.7
		c2.2,0,4.3,0.9,5.7,2.6l11.4,12.8c8.8,9.9,13.7,22.7,13.7,36v4.8c0,1-0.5,1.8-1.4,2.2C162.4,238.9,145.3,242.8,128,242.8z
		 M73.9,223.5c30.9,17.5,68.3,18.9,100.5,4v-3.2c0-12-4.4-23.7-12.4-32.6l-11.4-12.8c-1-1.1-2.7-1.2-3.8-0.2c-0.6,0.5-0.9,1.2-0.9,2
		c0,3.6-2.2,6.9-5.5,8.3l-10.8,4.6c-4.4,1.9-9.2,2.9-14,2.9H99.5c-3.1,0-5.6,2.5-5.6,5.6c0,5.9-4.8,10.6-10.6,10.6h-3.7
		c-3.1,0-5.6,2.5-5.6,5.6V223.5z M176.9,229.1L176.9,229.1z"/>
	<path d="M30.8,140.7c-4.1,0-7.4-3.3-7.4-7.4v-3.1c0-1.8,0.6-3.5,1.8-4.9l4-4.5l0,0c1.9-2.1,5.1-2.4,7.2-0.5c1.1,1,1.8,2.4,1.8,3.9
		v9.1C38.2,137.4,34.9,140.7,30.8,140.7z M33,124.1l-4,4.5c-0.4,0.4-0.6,1-0.6,1.6v3.1c0,1.3,1.1,2.4,2.4,2.3c1.3,0,2.3-1.1,2.3-2.3
		v-9.1C33.2,124.1,33.1,124.1,33,124.1C33,124.1,33,124.1,33,124.1z"/>
	<path d="M138.6,58.1c-2.9,0-5.2-2.4-5.2-5.3c0-1.4,0.5-2.7,1.5-3.6l10.3-10.7l0,0c2-2.1,5.3-2.2,7.4-0.1c1,1,1.6,2.4,1.6,3.8v0.4
		C154.2,51.2,147.2,58.1,138.6,58.1z M148.8,42l-10.3,10.7c-0.1,0.1-0.1,0.3,0,0.4c0,0,0.1,0.1,0.2,0.1c5.8,0,10.6-4.7,10.6-10.6
		v-0.4c0-0.1-0.1-0.2-0.2-0.2C149,41.9,148.8,41.9,148.8,42L148.8,42z"/>
	<path d="M121.1,127.7c-3.4,0-6.1-2.8-6.1-6.1c0-2.3,1.3-4.4,3.4-5.5l10.6-5.4c1.5-0.8,2.9-1.9,3.9-3.3l2.7-3.9l0,0
		c2.4-3.3,6.2-5.3,10.3-5.3c4.2,0,7.7,3.4,7.7,7.7c0,1.2-0.3,2.4-0.9,3.5c-3.1,6-8.4,10.7-14.8,13.1l-12.2,4.5
		C124.2,127.5,122.6,127.7,121.1,127.7z M139.5,106.4l-2.7,3.9c-1.5,2.1-3.4,3.8-5.7,4.9l-10.6,5.4c-0.6,0.3-0.8,1-0.5,1.5
		c0.2,0.4,0.6,0.6,1,0.6c1,0,1.9-0.2,2.8-0.5l12.2-4.5c5.2-1.9,9.5-5.7,12.1-10.7c0.7-1.3,0.2-2.9-1.1-3.6c-0.4-0.2-0.8-0.3-1.2-0.3
		C143.3,103.2,141,104.4,139.5,106.4L139.5,106.4z"/>
</g>
</svg>
